<svg width="432" height="432" viewBox="0 0 432 432" fill="none" xmlns="http://www.w3.org/2000/svg">
<path d="M207.056 363.607V298.874C207.552 298.874 208.042 298.874 208.53 298.874C219.249 298.874 229.968 298.904 240.686 298.862C246.058 298.842 251.317 299.724 256.221 301.835C260.997 303.893 264.455 307.542 265.516 313.08C266.76 319.575 263.355 326.51 257.502 329.423C257.395 329.476 257.287 329.528 257.076 329.631C258.411 330.39 259.69 331.05 260.903 331.818C265.708 334.861 268.369 339.175 268.621 345.12C268.887 351.372 266.293 356.078 261.318 359.157C258.599 360.84 255.387 362.042 252.257 362.563C247.633 363.331 242.887 363.505 238.188 363.569C228.077 363.704 217.963 363.608 207.851 363.608H207.057L207.056 363.607ZM228.049 338.456C227.997 338.547 227.946 338.637 227.894 338.728C227.864 341.435 227.822 344.143 227.813 346.849C227.812 347.343 227.943 347.837 228.014 348.332C228.113 348.358 228.211 348.386 228.309 348.413C229.239 348.373 230.168 348.307 231.098 348.298C234.918 348.261 238.756 348.468 242.555 348.153C246.808 347.801 248.44 344.47 246.435 340.609C245.474 338.758 243.519 338.535 241.875 338.469C237.273 338.286 232.66 338.437 228.051 338.456H228.049ZM227.846 323.675C231.77 323.675 235.583 323.79 239.385 323.64C242.75 323.508 244.31 321.702 244.273 318.439C244.254 316.789 243.241 315.268 241.663 315.048C239.267 314.713 236.841 314.561 234.423 314.455C232.263 314.362 230.097 314.436 227.846 314.436V323.675Z" fill="white"/>
<path d="M167.363 363.554C160.565 363.557 153.765 363.554 146.966 363.566C146.106 363.567 145.721 363.406 145.406 362.319C144.5 359.2 143.258 356.185 142.105 353.146C142.006 352.883 141.583 352.583 141.311 352.581C133.534 352.551 125.757 352.557 117.832 352.557C116.613 356.016 115.425 359.443 114.171 362.844C114.046 363.185 113.511 363.583 113.165 363.586C106.273 363.63 99.38 363.618 92.3984 363.618C94.1576 359.513 95.8527 355.582 97.5254 351.641C100.928 343.626 104.336 335.614 107.707 327.584C111.573 318.376 115.384 309.145 119.283 299.953C119.49 299.462 120.281 298.937 120.806 298.931C127.003 298.862 133.201 298.862 139.398 298.935C139.925 298.941 140.711 299.483 140.927 299.983C143.119 305.068 145.203 310.202 147.347 315.31C150.356 322.477 153.379 329.638 156.418 336.79C158.965 342.787 161.564 348.76 164.102 354.762C165.245 357.462 166.294 360.206 167.387 362.93C167.379 363.137 167.372 363.346 167.364 363.553L167.363 363.554ZM123.879 336.322H135.832C133.885 330.968 132.011 325.817 130.137 320.665C130 320.661 129.863 320.656 129.726 320.65C127.791 325.837 125.857 331.023 123.88 336.322H123.879Z" fill="white"/>
<path d="M325.232 322.713C324.643 321.912 324.164 321.135 323.567 320.467C321.303 317.938 318.553 316.292 315.297 315.417C309.486 313.857 303.145 316.042 299.789 321.074C298.295 323.315 297.557 325.898 297.12 328.605C296.399 333.073 297.346 337.203 299.551 340.959C301.466 344.223 304.323 346.35 308.096 347.078C311.544 347.743 314.878 347.342 318.095 346.115C320.76 345.098 322.796 343.058 324.643 340.894C325.347 340.07 325.661 340.018 326.467 340.787C330.239 344.384 334.075 347.909 337.932 351.409C338.521 351.944 338.659 352.238 338.131 352.898C334.19 357.804 329.205 361.17 323.384 363.072C318.069 364.81 312.524 365.427 306.974 364.929C300.943 364.388 295.234 362.548 290.136 359.05C284.123 354.925 279.922 349.349 277.523 342.288C276.608 339.595 276.122 336.862 275.866 334.037C275.026 324.786 277.785 316.692 283.358 309.592C286.499 305.592 290.51 302.65 295.166 300.727C297.276 299.855 299.393 298.953 301.577 298.331C303.14 297.886 304.817 297.764 306.45 297.705C309.244 297.604 312.043 297.6 314.837 297.675C318.835 297.783 322.582 298.986 326.26 300.549C330.91 302.527 334.741 305.596 338.035 309.463C338.5 310.009 338.765 310.368 338.09 310.979C334.686 314.068 331.32 317.199 327.935 320.31C327.176 321.008 326.396 321.68 325.234 322.712L325.232 322.713Z" fill="white"/>
<path d="M173.557 298.912H194.624V363.495H173.557V298.912Z" fill="white"/>
<path d="M250.298 126.833C250.081 126.819 249.865 126.805 249.649 126.791C249.338 126.832 249.028 126.872 248.717 126.913C233.337 126.924 217.956 126.941 202.577 126.946C197.356 126.949 192.137 126.928 186.917 126.919C186.518 126.871 186.119 126.824 185.719 126.776C184.627 126.449 185.43 125.863 185.626 125.512C187.413 122.311 189.293 119.166 191.057 115.952C194.93 108.896 198.734 101.8 202.602 94.7428C205.279 89.8596 208.037 85.0228 210.72 80.1431C212.784 76.3865 214.779 72.5906 216.827 68.8236C217.154 68.2232 217.594 67.6877 218.131 66.9042C219.41 69.0658 220.59 70.9435 221.655 72.8873C223.21 75.7259 224.654 78.6282 226.196 81.4737C228.556 85.8284 230.944 90.1668 233.35 94.4947C236.195 99.6132 239.095 104.699 241.929 109.825C244.762 114.949 247.546 120.102 250.339 125.25C250.584 125.7 250.732 126.208 250.925 126.69C250.716 126.738 250.508 126.787 250.299 126.834L250.298 126.833ZM205.127 119.002C206.129 119.002 207.13 119.005 208.131 119.006C208.25 119.009 208.369 119.011 208.488 119.015C208.744 119.015 209 119.015 209.256 119.015C209.522 119.079 209.787 119.197 210.053 119.197C216.707 119.193 223.361 119.177 230.014 119.163C230.567 119.161 231.118 119.16 231.67 119.157C233.739 119.059 235.809 118.96 238.066 118.854C231.434 106.833 224.857 94.9085 218.082 82.627C216.947 84.7551 216.02 86.5702 215.025 88.3447C209.767 97.7297 204.489 107.103 199.227 116.485C198.878 117.106 198.587 117.763 198.269 118.403C197.881 119.185 198.382 119.181 198.899 119.161C199.018 119.138 199.136 119.116 199.255 119.093C200.733 119.029 202.213 118.966 203.691 118.903C204.054 118.933 204.417 118.963 204.779 118.994C204.895 118.998 205.012 118.999 205.127 119.002Z" fill="white"/>
<path d="M251.19 283.213H185.152C196.16 263.206 207.088 243.342 218.155 223.229C229.223 243.325 240.148 263.163 251.19 283.213ZM237.823 275.561C237.739 275.155 237.741 274.701 237.557 274.352C236.708 272.753 235.8 271.189 234.927 269.603C233.294 266.641 231.677 263.67 230.042 260.708C228.522 257.957 226.991 255.213 225.457 252.47C223.026 248.122 220.589 243.778 218.084 239.308C211.382 251.406 204.773 263.334 198.029 275.509H236.132C236.233 275.506 236.334 275.505 236.434 275.503L236.975 275.51C237.259 275.526 237.542 275.542 237.825 275.558L237.823 275.561Z" fill="white"/>
<path d="M261.889 277.007C251.003 257.366 240.117 237.725 229.073 217.799H295.237C284.446 237.791 273.409 257.394 262.539 277.096C262.322 277.066 262.106 277.037 261.889 277.007ZM242.86 225.381C242.677 225.426 242.494 225.472 242.312 225.517C242.55 226.088 242.737 226.688 243.034 227.225C246.989 234.403 250.966 241.567 254.92 248.745C256.643 251.875 258.31 255.037 260.035 258.165C260.685 259.344 261.428 260.47 262.27 261.853C269.042 249.628 275.672 237.66 282.37 225.567C281.518 225.512 280.793 225.464 280.069 225.417C279.97 225.386 279.871 225.355 279.772 225.325C279.311 225.34 278.849 225.355 278.389 225.371C278.288 225.375 278.187 225.378 278.085 225.382C267.557 225.388 257.029 225.393 246.501 225.399C246.4 225.398 246.298 225.397 246.197 225.396C245.925 225.39 245.654 225.385 245.383 225.379C245.282 225.379 245.18 225.378 245.079 225.377C244.339 225.377 243.599 225.379 242.861 225.379L242.86 225.381Z" fill="white"/>
<path d="M338.999 283.188H273.343C284.303 263.309 295.212 243.524 306.121 223.74C307.346 224.707 339.045 281.961 339 283.188H338.999ZM323.983 275.501C324.664 275.469 325.345 275.435 326.41 275.384C319.692 263.293 313.097 251.421 306.339 239.255C299.481 251.606 292.853 263.542 286.206 275.512H323.682C323.783 275.508 323.883 275.505 323.984 275.5L323.983 275.501Z" fill="white"/>
<path d="M162.983 283.174H97.0093C108.005 263.159 118.878 243.366 129.93 223.249C141.007 243.331 151.92 263.116 162.983 283.174ZM113.349 275.53H149.991C143.149 263.152 136.513 251.151 129.902 239.192C123.22 251.265 116.535 263.346 109.689 275.715H111.638C112.208 275.654 112.779 275.591 113.349 275.53Z" fill="white"/>
<path d="M141.042 217.742H206.769C206.14 219.118 205.609 220.469 204.926 221.734C203.091 225.129 201.191 228.486 199.315 231.857C196.189 237.479 193.05 243.092 189.937 248.722C185.209 257.27 180.491 265.824 175.783 274.384C175.26 275.334 174.819 276.332 174.176 277.643C173.645 276.939 173.204 276.49 172.916 275.953C170.095 270.707 167.352 265.416 164.481 260.2C161.747 255.235 158.859 250.362 156.091 245.416C153.416 240.635 150.795 235.821 148.176 231.007C145.814 226.661 143.488 222.296 141.041 217.744L141.042 217.742ZM189.993 225.384C189.801 225.39 189.609 225.397 189.417 225.402C187.461 225.414 185.504 225.44 183.547 225.435C174.601 225.417 165.655 225.391 156.709 225.368C156.608 225.389 156.508 225.408 156.407 225.429H153.921C160.657 237.734 167.288 249.85 174.024 262.153C180.793 249.813 187.404 237.76 194.195 225.383L189.993 225.384Z" fill="white"/>
<path d="M240.679 139.234H250.585C250.703 139.398 250.82 139.562 250.937 139.726C240.305 159.693 229.164 179.366 218.19 199.376C217.583 198.452 217.044 197.742 216.62 196.964C213.834 191.862 211.093 186.733 208.297 181.636C205.752 176.999 203.148 172.396 200.584 167.771C196.403 160.226 192.237 152.674 188.059 145.128C187.181 143.544 186.292 141.965 185.379 140.401C185.059 139.854 184.869 139.43 185.718 139.305C187.336 139.293 188.953 139.283 190.57 139.271C190.737 139.274 190.906 139.275 191.073 139.277C191.281 139.277 191.488 139.277 191.695 139.276C192.701 139.27 193.708 139.264 194.713 139.258C195.197 139.258 195.682 139.258 196.166 139.258C196.333 139.26 196.5 139.261 196.667 139.262C196.874 139.262 197.082 139.264 197.29 139.265C208.78 139.286 220.271 139.314 231.761 139.323C234.598 139.326 237.436 139.264 240.272 139.233C240.407 139.233 240.542 139.234 240.677 139.235L240.679 139.234ZM230.265 147.006C222.155 147.006 214.044 147.005 205.933 147.003C205.839 147.003 205.744 147.003 205.649 147.003C204.998 147.003 204.345 147.003 203.694 147.003C203.6 147.005 203.506 147.006 203.411 147.008C203.133 147.008 202.854 147.01 202.575 147.012C202.481 147.012 202.388 147.012 202.293 147.013C201.08 147.013 199.867 147.015 198.654 147.016C198.502 147.091 198.35 147.167 198.198 147.242C198.287 147.548 198.323 147.885 198.474 148.153C199.573 150.099 200.726 152.014 201.805 153.972C203.574 157.182 205.294 160.423 207.048 163.643C210.007 169.08 212.973 174.513 215.941 179.945C216.57 181.096 217.218 182.236 218.095 183.806C224.933 171.418 231.554 159.423 238.408 147.007H230.548C230.454 147.007 230.36 147.006 230.265 147.006Z" fill="white"/>
<path d="M229.446 204.663C230.766 202.193 232.07 199.714 233.408 197.255C236.346 191.858 239.285 186.461 242.253 181.081C244.347 177.285 246.502 173.526 248.607 169.736C251.8 163.987 254.986 158.234 258.147 152.468C259.452 150.088 260.686 147.667 262.136 144.919C262.618 145.778 262.965 146.383 263.3 146.995C266.541 152.933 269.752 158.89 273.028 164.807C275.777 169.768 278.626 174.667 281.386 179.62C284.143 184.567 286.844 189.548 289.574 194.51C291.318 197.681 293.076 200.843 294.799 204.026C294.887 204.187 294.696 204.508 294.634 204.754C294.519 204.762 294.403 204.77 294.287 204.779C279.007 204.757 263.728 204.736 248.448 204.716C248.076 204.716 247.705 204.747 247.332 204.763C247.236 204.765 247.142 204.766 247.047 204.769C246.768 204.77 246.491 204.772 246.213 204.773C246.118 204.776 246.024 204.779 245.929 204.781C240.717 204.777 235.505 204.772 230.294 204.766C230.011 204.731 229.728 204.697 229.445 204.662L229.446 204.663ZM279.21 197.049C280.148 196.998 281.087 196.946 282.025 196.895C282.006 196.755 282.025 196.591 281.961 196.477C279.551 192.092 277.148 187.702 274.713 183.333C271.651 177.839 268.562 172.361 265.483 166.877C264.445 165.027 263.404 163.179 262.192 161.025C255.473 173.143 248.929 184.946 242.289 196.923C242.775 197.007 243.238 197.155 243.7 197.157C245.938 197.17 248.174 197.138 250.411 197.133C260.011 197.104 269.611 197.078 279.211 197.051L279.21 197.049Z" fill="white"/>
<path d="M157.537 204.776H141.246C141.486 204.249 141.613 203.916 141.784 203.608C144.805 198.143 147.852 192.692 150.851 187.214C154.56 180.444 158.215 173.641 161.925 166.871C164.673 161.855 167.485 156.875 170.238 151.862C171.27 149.982 172.205 148.045 173.216 146.152C173.402 145.802 173.734 145.535 173.999 145.23C174.279 145.514 174.64 145.751 174.827 146.089C179.096 153.858 183.364 161.629 187.595 169.421C190.37 174.531 193.042 179.702 195.84 184.8C198.523 189.686 201.319 194.507 204.045 199.369C204.951 200.985 205.8 202.637 206.64 204.291C206.68 204.368 206.39 204.624 206.253 204.797C206.133 204.811 206.012 204.825 205.892 204.84C190.846 204.798 175.801 204.757 160.756 204.717C160.151 204.716 159.547 204.746 158.942 204.761C158.846 204.762 158.752 204.764 158.657 204.765C158.378 204.767 158.101 204.768 157.823 204.771C157.727 204.773 157.633 204.775 157.537 204.776ZM191.093 197.088C191.877 197.121 192.659 197.174 193.442 197.159C193.526 197.158 193.604 196.768 193.684 196.558C187.192 184.785 180.7 173.012 174.011 160.878C167.295 173.036 160.754 184.88 154.121 196.886C154.576 196.992 154.95 197.157 155.324 197.157C167.247 197.144 179.17 197.115 191.093 197.088Z" fill="white"/>
<path d="M190.57 139.271C188.953 139.282 187.335 139.293 185.718 139.303C187.336 139.292 188.954 139.281 190.57 139.271Z" fill="white"/>
<path d="M248.717 126.912C249.028 126.872 249.337 126.831 249.647 126.791C249.338 126.831 249.028 126.872 248.717 126.912Z" fill="white"/>
<path d="M191.693 139.274C191.486 139.274 191.279 139.274 191.074 139.275C191.281 139.275 191.487 139.275 191.693 139.274Z" fill="white"/>
<path d="M197.289 139.264C197.083 139.264 196.876 139.262 196.669 139.26C196.876 139.26 197.083 139.263 197.289 139.264Z" fill="white"/>
<path d="M209.256 119.013C212.357 118.98 215.457 118.933 218.557 118.915C221.939 118.897 225.322 118.899 228.703 118.918C229.14 118.92 229.576 119.075 230.013 119.159C223.359 119.173 216.706 119.189 210.052 119.192C209.787 119.192 209.521 119.074 209.255 119.012L209.256 119.013Z" fill="white"/>
<path d="M198.898 119.159C199.017 119.136 199.135 119.113 199.254 119.092C199.135 119.115 199.017 119.137 198.898 119.159Z" fill="white"/>
<path d="M236.128 275.51C236.229 275.508 236.329 275.507 236.428 275.505C236.328 275.507 236.227 275.508 236.128 275.51Z" fill="white"/>
<path d="M242.859 225.382C242.677 225.426 242.495 225.471 242.314 225.515C242.496 225.471 242.678 225.426 242.859 225.382Z" fill="white"/>
<path d="M245.38 225.381C245.28 225.381 245.179 225.38 245.079 225.379C245.179 225.379 245.28 225.38 245.38 225.381Z" fill="white"/>
<path d="M189.992 225.385C189.801 225.392 189.61 225.397 189.418 225.403C189.61 225.396 189.801 225.391 189.992 225.385Z" fill="white"/>
</svg>
