<svg width="432" height="432" viewBox="0 0 432 432" fill="none" xmlns="http://www.w3.org/2000/svg">
<g clip-path="url(#clip0_52_655)">
<g clip-path="url(#clip1_52_655)">
<path d="M50.8647 197.307H58.0584C58.5677 197.307 59.0769 197.371 59.5226 197.499L59.9045 186.34L50.8647 197.307Z" fill="white"/>
<path d="M63.7244 188.636L59.9684 186.404L59.9047 186.85L59.5864 197.499C59.7774 197.562 59.9047 197.562 60.0957 197.626L61.3689 196.415L63.7244 191.696L64.2336 189.72L63.7244 188.636Z" fill="white"/>
<path d="M65.7614 186.276C65.1248 186.276 64.4882 186.34 63.8516 186.404V188.827L64.1699 189.273L67.1619 189.656L71.1089 189.72L74.8012 189.592C72.3184 187.488 69.199 186.276 65.7614 186.276Z" fill="white"/>
<path d="M74.6103 189.464L63.8517 188.891L59.5864 197.371V197.499C59.7774 197.562 60.032 197.626 60.223 197.69L65.4432 196.478L70.918 192.971L75.7562 190.293L74.6103 189.464Z" fill="white"/>
<path d="M74.8649 189.592C74.8013 189.528 74.7376 189.465 74.674 189.401L59.5864 197.499C62.4511 198.2 64.5519 200.814 64.5519 203.875H64.8702L69.2628 200.942L73.5917 195.203L75.0559 190.102L74.8649 189.592Z" fill="white"/>
<path d="M74.6738 189.401L64.5518 203.939L71.8091 205.405L77.9205 202.855L79.7029 202.217C79.7666 201.58 79.8303 201.006 79.8303 200.368C79.8939 195.968 77.8568 192.015 74.6738 189.401Z" fill="white"/>
<path d="M79.8941 200.24L64.6156 203.875L64.5519 204.003C64.5519 204.321 64.4883 204.704 64.4883 205.023L65.4432 207.892L69.4538 213.057L71.4273 213.439C76.4564 211.271 79.9578 206.234 79.9578 200.432C79.8941 200.368 79.8941 200.304 79.8941 200.24Z" fill="white"/>
<path d="M63.8514 206.808C62.8328 208.849 60.7957 210.315 58.4402 210.506H50.228L59.4588 220.964L59.5225 221.027C59.6498 221.027 59.7771 221.027 59.9681 220.964L60.732 220.198L63.5331 212.738L64.297 208.466L63.8514 206.808Z" fill="white"/>
<path d="M64.5516 203.747C64.5516 203.811 64.5516 203.811 64.5516 203.875C64.5516 205.342 64.106 206.617 63.3421 207.701L59.5225 220.963C59.8408 220.9 60.1591 220.9 60.4774 220.9C61.1776 220.9 61.8779 220.963 62.5782 221.155H63.7877L67.7983 217.775L70.4084 215.289L71.7453 213.503L64.5516 203.747Z" fill="white"/>
<path d="M73.4644 215.799L72.3822 213.758C72.1912 213.695 71.9366 213.631 71.7456 213.567L59.5864 221.027C59.8411 221.027 60.1594 220.964 60.414 220.964C64.8066 220.964 68.3079 224.534 68.3079 228.934C68.3079 229.189 68.3079 229.38 68.3079 229.635L71.6819 227.722L73.91 223.642L73.4644 215.799Z" fill="white"/>
<path d="M71.6818 213.503L68.3078 228.743C68.3078 228.806 68.3078 228.806 68.3078 228.87C68.3078 229.125 68.3078 229.38 68.2441 229.571L73.7826 231.484L84.4139 231.676C84.4139 231.293 84.4776 230.847 84.4776 230.464C84.4776 222.366 79.0664 215.607 71.6818 213.503Z" fill="white"/>
<path d="M84.414 229.061L68.3079 228.87C68.3079 229.763 68.1806 230.655 67.8623 231.484L68.2443 234.673L69.9631 239.136L73.6554 244.492L75.7562 245.512C80.9127 242.452 84.414 236.841 84.414 230.337C84.4777 229.954 84.414 229.508 84.414 229.061Z" fill="white"/>
<path d="M68.3079 228.87C68.3079 233.27 64.7429 236.841 60.414 236.841C60.3503 236.841 60.2866 236.841 60.223 236.841H59.2681L59.5864 240.921L69.8357 244.875L74.2919 246.341C74.9285 246.022 75.5651 245.704 76.2018 245.321L68.3079 228.87Z" fill="white"/>
<path d="M60.0318 236.84H59.8408H58.8859L57.1671 244.938L56.4668 247.935H67.1618C70.5358 247.935 73.6551 246.915 76.3289 245.257L60.0318 236.84Z" fill="white"/>
<path d="M60.0318 236.84H49.4005L49.2095 236.968L50.3554 240.347L54.4296 246.788L56.3394 247.999H58.5676V247.935L60.0318 236.84Z" fill="white"/>
<path d="M49.4007 236.84L48.7004 237.287C48.6367 237.414 48.6368 237.478 48.6368 237.478L46.5996 242.069L46.0903 243.089V247.999H58.5041L49.4007 236.84Z" fill="white"/>
<path d="M46.0903 239.072V247.808L49.4007 236.904L46.0903 239.072Z" fill="white"/>
<path d="M29.9841 186.213L24 192.206L33.5491 192.398L29.9841 186.213Z" fill="white"/>
<path d="M36.3501 186.213L34.5039 191.696L42.0795 190.995L36.3501 186.213Z" fill="white"/>
<path d="M23.8091 242.771L28.9656 248.063L32.0849 242.579L23.8091 242.771Z" fill="white"/>
<path d="M55.894 179.581V185.256L60.4776 179.581H55.894Z" fill="white"/>
<path d="M37.3687 180.219L44.7533 184.427L44.8806 180.538L37.3687 180.219Z" fill="white"/>
<path d="M57.0396 248.764L56.8486 254.248H62.0688L57.0396 248.764Z" fill="white"/>
<path d="M59.9048 250.231L64.934 255.714V250.231H59.9048Z" fill="white"/>
<path d="M36.9869 249.211L36.605 254.248L43.544 254.567L36.9869 249.211Z" fill="white"/>
<path d="M35.9048 231.484L36.9234 241.24L45.3265 234.8L35.9048 231.484Z" fill="white"/>
<path d="M30.5571 237.542L33.4855 242.962L34.6314 237.606L30.5571 237.542Z" fill="white"/>
<path d="M50.1644 226.957L43.2891 230.082L50.3554 233.333L50.1644 226.957Z" fill="white"/>
<path d="M39.3424 226.128L37.1143 229.763L43.4803 228.679L39.3424 226.128Z" fill="white"/>
<path d="M31.3208 223.386L31.4481 227.786H34.8221L31.3208 223.386Z" fill="white"/>
<path d="M49.7827 220.708L47.7456 226.447L52.7748 223.578L49.7827 220.708Z" fill="white"/>
<path d="M40.106 214.906L42.9707 224.917L48.8274 219.561L40.106 214.906Z" fill="white"/>
<path d="M32.7217 220.645L35.9684 222.558L38.1965 218.732L32.7217 220.645Z" fill="white"/>
<path d="M50.5464 213.439L50.61 218.222L54.8753 218.349L50.5464 213.439Z" fill="white"/>
<path d="M37.2414 211.08L35.6499 214.715L38.5146 213.95L37.2414 211.08Z" fill="white"/>
<path d="M48.8275 211.08L40.4243 209.167L48.9548 216.755L48.8275 211.08Z" fill="white"/>
<path d="M29.793 209.04L31.3208 211.59L33.4216 210.379L29.793 209.04Z" fill="white"/>
<path d="M34.7588 203.875L35.0771 210.315L37.8145 208.402L34.7588 203.875Z" fill="white"/>
<path d="M38.4512 204.194L49.1461 209.04L51.1833 199.667L38.4512 204.194Z" fill="white"/>
<path d="M31.0029 203.237L32.2125 204.321L32.2761 201.197L31.0029 203.237Z" fill="white"/>
<path d="M33.2306 195.076L31.8301 196.734L34.5038 198.264L33.2306 195.076Z" fill="white"/>
<path d="M37.687 192.27L40.1061 201.006L45.3263 195.394L37.687 192.27Z" fill="white"/>
<path d="M44.9441 240.029L36.2227 246.405L45.0078 253.546L44.9441 240.029Z" fill="white"/>
<path d="M33.9309 247.744L31.3208 249.657H36.2863L33.9309 247.744Z" fill="white"/>
<path d="M33.9946 179.709L34.1856 184.172L44.4349 185.766L33.9946 179.709Z" fill="white"/>
<path d="M58.5039 184.619L62.9601 187.233V179.517L58.5039 184.619Z" fill="white"/>
<path d="M56.7214 186.149L45.3898 186.021H45.3262L47.7453 187.679H47.6816L47.7453 187.743L47.5543 188.125C47.5543 188.125 47.427 188.253 47.236 188.189L47.7453 190.485L51.9469 191.441L52.3288 191.377L53.0291 190.548L56.7214 186.149Z" fill="white"/>
<path d="M47.7456 187.615L46.4724 189.082L46.4087 192.015L49.2734 194.374L49.4007 194.629H49.4644L53.0294 190.548L47.7456 187.615Z" fill="white"/>
<path d="M47.7454 187.679L38.0054 186.085L49.4643 194.629L47.7454 187.679Z" fill="white"/>
<path d="M0.190918 160.835V272.165H110.896V160.835H0.190918ZM103.003 264.259H8.08482V168.741H103.003V264.259Z" fill="white"/>
<path d="M152.976 183.407C156.859 182.068 159.597 178.944 159.597 173.779C159.597 166.255 153.804 162.684 144.509 162.684H125.411V206.617H144.191C151.83 206.617 161.379 204.321 161.379 194.31C161.379 187.87 157.305 184.682 152.976 183.407ZM134.769 170.399H143.682C147.82 170.399 150.302 171.993 150.302 175.437C150.302 178.816 147.756 180.474 144.191 180.474H134.769V170.399ZM144.064 198.965H134.706V187.679H144.573C148.329 187.679 152.021 188.699 152.021 193.354C152.021 198.136 148.265 198.965 144.064 198.965ZM167.045 206.617H175.703V160.835H167.045V206.617ZM198.111 175.628C189.454 175.628 181.56 181.048 181.56 191.569C181.56 202.09 189.454 207.509 198.111 207.509C206.833 207.509 214.663 202.09 214.663 191.569C214.663 181.048 206.833 175.628 198.111 175.628ZM198.111 199.73C193.21 199.73 190.408 196.223 190.408 191.569C190.408 186.914 193.146 183.407 198.111 183.407C203.077 183.407 205.878 186.914 205.878 191.569C205.814 196.223 203.077 199.73 198.111 199.73ZM227.523 191.569C227.523 185.447 232.106 183.152 236.817 183.152C239.682 183.152 242.674 184.045 244.838 185.384V177.732C242.164 176.266 238.918 175.564 235.607 175.564C227.332 175.564 218.674 180.474 218.674 192.015C218.674 202.727 226.822 207.509 235.034 207.509C238.854 207.509 242.228 206.744 245.156 205.469V197.817C242.992 199.156 239.936 199.985 236.753 199.985C231.979 199.985 227.523 197.371 227.523 191.569ZM280.552 176.521H270.812L263.172 187.743H259.544V162.684H250.886V206.617H259.544V194.693H263.045L271.639 206.617H281.379L270.302 191.377L280.552 176.521ZM290.801 191.569C290.801 185.447 295.385 183.152 300.095 183.152C302.96 183.152 305.952 184.045 308.117 185.384V177.732C305.443 176.266 302.196 175.564 298.886 175.564C290.61 175.564 281.952 180.474 281.952 192.015C281.952 202.727 290.101 207.509 298.313 207.509C302.133 207.509 305.507 206.744 308.435 205.469V197.817C306.271 199.156 303.215 199.985 300.032 199.985C295.321 199.985 290.801 197.371 290.801 191.569ZM331.926 175.628C328.17 175.628 325.114 177.222 322.95 179.262V162.684H314.228V206.617H322.886V186.978C324.159 185.129 326.515 183.152 329.57 183.152C332.944 183.152 335.363 185.065 335.363 189.146V206.681H344.021V187.998C344.085 181.048 339.756 175.628 331.926 175.628ZM377.889 198.838V189.273C377.889 179.326 372.159 175.628 363.119 175.628C358.472 175.628 353.952 176.839 351.533 177.668V185.192C354.334 184.045 358.027 182.961 362.164 182.961C366.875 182.961 369.231 185.065 369.231 188.062V189.146C367.13 188.636 364.456 188.317 362.101 188.317C356.117 188.317 348.923 190.676 348.923 198.391C348.923 204.385 353.825 207.637 359.427 207.637C363.883 207.637 367.321 206.234 370.249 203.939C371.523 206.17 373.814 207.318 376.87 207.318C378.525 207.318 380.308 206.936 381.708 206.425V200.687C381.135 200.878 380.562 200.942 380.117 200.942C378.843 200.878 377.889 200.432 377.889 198.838ZM369.167 198.838C367.194 200.623 364.838 201.261 362.419 201.261C359.809 201.261 357.708 199.794 357.708 197.562C357.708 194.502 360.828 193.418 364.011 193.418C365.793 193.418 367.83 193.8 369.103 194.119L369.167 198.838ZM385.783 206.617H394.44V176.521H385.783V206.617ZM390.111 161.664C387.438 161.664 385.082 163.194 385.082 166.574C385.082 170.017 387.438 171.547 390.111 171.547C392.849 171.547 395.204 170.017 395.204 166.574C395.204 163.13 392.849 161.664 390.111 161.664ZM419.65 175.628C415.321 175.628 411.947 177.668 409.655 180.346V176.521H401.952V206.681H410.61V186.978C411.883 185.129 414.239 183.152 417.294 183.152C420.668 183.152 423.088 185.065 423.088 189.146V206.681H431.745V187.998C431.809 181.048 427.544 175.628 419.65 175.628Z" fill="white"/>
<path d="M134.769 227.34H125.411V271.273H156.223V262.792H134.833V227.34H134.769ZM165.072 226.256C162.398 226.256 160.042 227.786 160.042 231.166C160.042 234.609 162.398 236.139 165.072 236.139C167.809 236.139 170.164 234.609 170.164 231.166C170.164 227.786 167.809 226.256 165.072 226.256ZM160.743 271.273H169.401V241.113H160.743V271.273ZM179.841 238.18V241.113H174.684V248.445H179.841V271.209H188.435V248.445H197.602V241.113H188.435V238.562C188.435 234.8 190.981 233.78 193.782 233.78C195.692 233.78 197.666 234.29 198.939 235.055V227.722C197.029 226.957 194.292 226.447 191.554 226.447C185.952 226.447 179.841 229.125 179.841 238.18ZM215.109 240.284C208.361 240.284 199.703 244.875 199.703 256.225C199.703 266.682 207.597 272.165 217.082 272.165C221.602 272.165 225.231 271.464 228.095 270.252V263.43C225.549 264.577 222.493 265.279 219.056 265.279C214.154 265.279 209.507 263.43 208.488 259.094H229.56C231.533 250.103 227.586 240.284 215.109 240.284ZM221.729 253.419H208.361C208.488 249.274 211.735 246.979 215.427 246.979C220.902 246.915 222.048 251.315 221.729 253.419Z" fill="white"/>
<path d="M249.676 231.612C253.432 228.934 257.825 227.659 262.727 227.659C266.865 227.659 270.175 228.615 272.722 230.592C275.268 232.505 276.541 235.119 276.541 238.435C276.541 239.837 276.287 241.24 275.777 242.452C275.268 243.727 274.695 244.811 273.995 245.704C273.294 246.596 272.34 247.553 271.13 248.573C269.92 249.593 268.775 250.358 267.883 250.996C266.928 251.57 265.655 252.335 264.127 253.291C259.862 255.778 256.997 257.627 255.597 258.839C252.414 261.644 250.822 265.024 250.759 268.913H277.05V271.336H248.085V269.934C248.085 268.021 248.34 266.171 248.913 264.514C249.485 262.856 250.122 261.453 250.886 260.369C251.65 259.285 252.732 258.137 254.069 256.99C255.47 255.842 256.679 254.949 257.634 254.312C258.589 253.674 259.989 252.909 261.645 251.889C261.772 251.825 261.899 251.761 261.963 251.697C262.027 251.633 262.154 251.634 262.218 251.57C262.345 251.506 262.409 251.442 262.472 251.442C264.127 250.422 265.337 249.721 265.974 249.274C266.674 248.828 267.629 248.19 268.902 247.17C270.175 246.214 271.066 245.385 271.639 244.62C272.149 243.918 272.658 242.962 273.167 241.878C273.676 240.794 273.867 239.582 273.867 238.307C273.867 235.756 272.785 233.716 270.684 232.186C268.584 230.719 265.783 229.954 262.281 229.954C257.825 229.954 253.56 231.293 249.422 234.035V231.612H249.676Z" fill="white"/>
<path d="M288.828 265.916C285.645 261.899 284.117 256.479 284.117 249.848C284.117 243.217 285.708 237.797 288.828 233.78C291.947 229.763 296.594 227.722 302.642 227.722C308.753 227.722 313.337 229.763 316.456 233.78C319.576 237.797 321.167 243.153 321.167 249.912C321.167 256.671 319.576 262.027 316.456 266.044C313.337 270.061 308.69 272.101 302.642 272.101C296.594 271.974 292.011 269.933 288.828 265.916ZM314.61 264.322C317.284 260.815 318.621 255.969 318.621 249.848C318.621 243.727 317.284 238.881 314.61 235.374C311.936 231.867 307.926 230.082 302.642 230.082C297.358 230.082 293.347 231.867 290.674 235.374C288 238.881 286.663 243.727 286.663 249.848C286.663 255.969 288 260.815 290.674 264.322C293.347 267.829 297.358 269.615 302.642 269.615C307.926 269.551 311.936 267.829 314.61 264.322Z" fill="white"/>
<path d="M329.316 231.612C333.072 228.934 337.464 227.659 342.366 227.659C346.504 227.659 349.814 228.615 352.361 230.592C354.907 232.505 356.18 235.119 356.18 238.435C356.18 239.837 355.926 241.24 355.416 242.452C354.907 243.727 354.334 244.811 353.634 245.704C352.934 246.596 351.979 247.553 350.769 248.573C349.56 249.593 348.414 250.358 347.523 250.996C346.568 251.57 345.358 252.335 343.767 253.291C339.501 255.778 336.637 257.627 335.236 258.839C332.053 261.644 330.462 265.024 330.398 268.913H356.69V271.336H327.724V269.934C327.724 268.021 327.979 266.171 328.552 264.514C329.125 262.856 329.761 261.453 330.525 260.369C331.289 259.285 332.371 258.137 333.708 256.99C335.109 255.842 336.318 254.949 337.273 254.312C338.228 253.674 339.629 252.909 341.284 251.889C341.411 251.825 341.538 251.761 341.602 251.697C341.666 251.633 341.793 251.634 341.857 251.57C341.984 251.506 342.048 251.442 342.111 251.442C343.767 250.422 344.976 249.721 345.613 249.274C346.313 248.828 347.268 248.19 348.541 247.17C349.814 246.214 350.706 245.385 351.278 244.62C351.788 243.918 352.297 242.962 352.806 241.878C353.316 240.794 353.507 239.582 353.507 238.307C353.507 235.756 352.424 233.716 350.387 232.186C348.286 230.719 345.485 229.954 341.984 229.954C337.528 229.954 333.263 231.293 329.125 234.035V231.612H329.316Z" fill="white"/>
<path d="M391.83 239.072C391.83 241.368 391.13 243.472 389.73 245.321C388.329 247.17 386.356 248.318 383.809 248.892C386.61 249.466 388.966 250.613 390.812 252.462C392.658 254.312 393.613 256.798 393.613 259.923C393.613 263.685 392.276 266.682 389.539 268.786C386.801 270.89 383.3 271.974 378.971 271.974C372.923 271.974 367.958 271.017 364.011 269.105V266.618C368.021 268.594 372.987 269.551 378.78 269.551C382.536 269.551 385.592 268.722 387.883 267C390.175 265.343 391.257 262.92 391.257 259.731C391.257 256.479 390.112 254.12 387.756 252.526C385.401 250.996 382.409 250.167 378.78 250.167H372.478V247.744L378.525 247.808C382.09 247.808 384.828 246.979 386.674 245.321C388.52 243.663 389.475 241.623 389.475 239.136C389.475 236.458 388.456 234.226 386.356 232.505C384.318 230.783 381.454 229.89 377.761 229.89C373.242 229.89 368.913 230.91 364.775 232.887V230.4C368.658 228.487 373.114 227.531 378.016 227.531C382.218 227.531 385.592 228.615 388.074 230.783C390.557 233.142 391.83 235.82 391.83 239.072Z" fill="white"/>
</g>
</g>
<defs>
<clipPath id="clip0_52_655">
<rect width="432" height="432" fill="white"/>
</clipPath>
<clipPath id="clip1_52_655">
<rect width="432" height="111.33" fill="white" transform="translate(0 160.835)"/>
</clipPath>
</defs>
</svg>
