<?xml version="1.0" encoding="utf-8"?>
<!-- Generator: Adobe Illustrator 25.2.3, SVG Export Plug-In . SVG Version: 6.00 Build 0)  -->
<svg version="1.1" id="Layer_1" xmlns="http://www.w3.org/2000/svg" xmlns:xlink="http://www.w3.org/1999/xlink" x="0px" y="0px"
	 viewBox="0 0 984.3 389.7" style="enable-background:new 0 0 984.3 389.7;" xml:space="preserve">
<style type="text/css">
	.st0{fill:#FFFFFF;}
</style>
<polygon class="st0" points="0,316.8 0,52.9 40.7,52.9 40.7,279.9 179.5,279.9 179.5,316.8 "/>
<path class="st0" d="M321.5,320.1c-20.8,0-38.2-3.8-52.6-11c-13.7-6.9-25.5-17.1-34.4-29.5c-8.8-13-15.2-27.5-18.9-42.8
	c-3.9-16.2-5.9-32.9-6.1-49.6V52.9h40.9v134.7c-0.1,12,1.2,23.9,3.8,35.6c2.2,10.7,6.2,20.9,11.7,30.3c5.3,8.8,12.7,16.1,21.6,21.2
	c10.4,5.6,22.2,8.3,34,7.9c11.9,0.4,23.6-2.3,34.1-7.9c9-5.2,16.4-12.6,21.6-21.6c5.4-9.6,9.4-19.9,11.7-30.6
	c2.4-11.5,3.7-23.1,3.8-34.8V52.9h41.2v134.7c0,17.4-2.2,34.6-6.4,51.5c-3.9,15.2-10.6,29.6-19.7,42.4c-9,12.1-20.8,21.9-34.4,28.4
	C358.9,316.7,341.5,320.1,321.5,320.1"/>
<polygon class="st0" points="525.5,130.1 525.5,316.8 484.5,316.8 484.5,52.9 518,52.9 664.4,243.4 664.4,53.3 705.8,53.3 
	705.8,316.8 670,316.8 "/>
<polygon class="st0" points="984.2,317.5 941.5,317.5 864.4,106.9 787.7,317.5 744.9,317.5 842,65.3 806.1,45.5 854.3,49.6 864.5,0 
	874.7,49.6 922.9,45.5 886.9,65.4 "/>
<path class="st0" d="M484,389.4v-36.3h15.2c1.6,0,3.1,0.3,4.5,1c2.7,1.4,4.8,3.7,5.9,6.5c0.5,1.4,0.8,2.8,0.8,4.3c0,2-0.5,4-1.4,5.8
	c-0.9,1.8-2.2,3.3-3.8,4.4c-1.7,1.1-3.7,1.7-5.7,1.7h-9.8v12.6L484,389.4z M489.7,371.7h9.4c1,0,2-0.3,2.9-0.9
	c0.8-0.6,1.5-1.5,1.9-2.5c0.5-1.1,0.7-2.3,0.7-3.5c0-1.2-0.2-2.4-0.8-3.5c-0.5-1-1.2-1.8-2.1-2.4c-0.8-0.6-1.8-0.9-2.8-0.9h-9.1
	L489.7,371.7z"/>
<path class="st0" d="M533,389.6c-2.5,0.1-5-0.4-7.3-1.5c-1.9-0.9-3.6-2.3-4.8-4c-1.2-1.8-2.1-3.8-2.7-5.9c-0.6-2.2-0.8-4.5-0.8-6.8
	v-18.4h5.7v18.4c0,1.6,0.2,3.3,0.5,4.9c0.3,1.5,0.9,2.9,1.6,4.1c0.7,1.2,1.8,2.2,3,2.9c3,1.4,6.4,1.4,9.4,0c1.2-0.7,2.3-1.8,3-3
	c0.8-1.3,1.3-2.7,1.6-4.2c0.3-1.5,0.5-3.1,0.5-4.7v-18.4h5.8v18.4c0,2.4-0.3,4.8-0.9,7.1c-0.5,2.1-1.5,4-2.8,5.8
	c-1.3,1.7-2.9,3-4.8,3.9C537.9,389.2,535.5,389.7,533,389.6"/>
<path class="st0" d="M586.8,380.1c0,1.8-0.5,3.5-1.6,5c-1,1.4-2.4,2.5-4,3.2c-1.8,0.8-3.7,1.2-5.6,1.2h-17.3v-36.3H577
	c1.6,0,3.1,0.4,4.4,1.4c1.3,0.9,2.3,2.1,2.9,3.5c1.5,3,1.3,6.5-0.3,9.4c-0.9,1.5-2.2,2.7-3.8,3.4c2,0.5,3.7,1.7,4.9,3.4
	C586.3,375.9,586.9,377.9,586.8,380.1 M581,379c0-1-0.2-1.9-0.7-2.8c-0.4-0.8-1-1.5-1.7-2c-0.7-0.5-1.6-0.8-2.5-0.8H564v11.1h11.6
	c1,0,1.9-0.2,2.7-0.7c0.8-0.5,1.4-1.2,1.9-2C580.7,380.9,581,380,581,379 M564,358.1v10.7h10.5c0.9,0,1.8-0.2,2.6-0.7
	c0.7-0.5,1.4-1.1,1.8-1.9c0.4-0.8,0.7-1.8,0.7-2.8c0-1-0.2-1.9-0.6-2.8c-0.4-0.8-1-1.4-1.7-1.9c-0.7-0.5-1.5-0.7-2.3-0.7L564,358.1z
	"/>
<polygon class="st0" points="594.8,389.4 594.8,353.1 600.5,353.1 600.5,384.3 620,384.3 620,389.4 "/>
<rect x="626.6" y="353.1" class="st0" width="5.7" height="36.2"/>
<path class="st0" d="M640.3,371c0-2.2,0.4-4.4,1.2-6.5c0.8-2.1,1.9-4.1,3.4-5.8c1.5-1.8,3.4-3.2,5.6-4.2c2.3-1.1,4.9-1.6,7.4-1.6
	c3-0.1,5.9,0.7,8.5,2.2c2.3,1.3,4.1,3.3,5.3,5.7l-4.5,3c-0.6-1.3-1.5-2.5-2.6-3.5c-1-0.8-2.1-1.4-3.4-1.8c-1.1-0.3-2.3-0.5-3.5-0.5
	c-1.7,0-3.5,0.4-5,1.2c-1.4,0.7-2.6,1.8-3.6,3c-1,1.3-1.7,2.7-2.2,4.2c-0.5,1.5-0.7,3.1-0.7,4.7c0,1.7,0.3,3.4,0.9,5
	c0.5,1.6,1.3,3,2.4,4.3c1,1.2,2.3,2.2,3.7,2.9c1.5,0.7,3.1,1.1,4.7,1.1c1.2,0,2.5-0.2,3.6-0.6c1.3-0.4,2.5-1,3.5-1.9
	c1.1-0.9,2-2.1,2.5-3.5l4.7,2.7c-0.8,1.8-2,3.4-3.5,4.6c-1.6,1.3-3.4,2.2-5.3,2.9c-1.9,0.6-3.8,1-5.8,1c-2.4,0-4.9-0.5-7.1-1.6
	c-2-1.1-3.9-2.5-5.4-4.2c-1.5-1.8-2.7-3.8-3.5-6C640.7,375.6,640.3,373.3,640.3,371"/>
<path class="st0" d="M694.2,389.4v-36.3H710c1.6,0,3.1,0.3,4.5,1c1.3,0.7,2.5,1.6,3.5,2.7c1,1.1,1.8,2.4,2.3,3.8
	c0.6,1.4,0.9,2.8,0.9,4.3c0,1.6-0.3,3.1-0.9,4.6c-0.6,1.4-1.4,2.7-2.5,3.8c-1,1.1-2.3,1.9-3.7,2.4l8.5,13.8h-6.4l-7.9-12.6h-8.4
	v12.6L694.2,389.4z M699.9,371.7h10c1,0,2-0.3,2.8-0.9c0.8-0.6,1.5-1.5,1.9-2.5c0.5-1.1,0.7-2.2,0.7-3.4c0-2.3-1.1-4.5-3-5.9
	c-0.8-0.6-1.8-0.9-2.8-0.9h-9.7L699.9,371.7z"/>
<polygon class="st0" points="754.9,384.3 754.9,389.4 730,389.4 730,353.1 754.4,353.1 754.4,358.2 735.7,358.2 735.7,368.5 
	751.9,368.5 751.9,373.3 735.7,373.3 735.7,384.3 "/>
<polygon class="st0" points="762.8,389.4 762.8,353.1 768.5,353.1 768.5,384.3 788,384.3 788,389.4 "/>
<path class="st0" d="M806.1,353.1h5.4l14.1,36.3h-6l-3.8-9.9h-14l-3.8,9.9h-6.1L806.1,353.1z M814.7,375.3l-5.9-15.9l-6,15.9H814.7z
	"/>
<polygon class="st0" points="854.3,358.2 842.3,358.2 842.3,389.4 836.5,389.4 836.5,358.2 824.4,358.2 824.4,353.1 854.3,353.1 "/>
<rect x="861.3" y="353.1" class="st0" width="5.7" height="36.2"/>
<path class="st0" d="M892.3,389.6c-2.4,0-4.9-0.5-7.1-1.5c-2.1-1-3.9-2.4-5.5-4.1c-1.5-1.7-2.7-3.7-3.5-5.9
	c-0.8-2.2-1.2-4.5-1.2-6.8c0-2.4,0.4-4.7,1.3-6.9c0.9-2.2,2.1-4.2,3.7-5.9c1.5-1.7,3.4-3.1,5.5-4.1c2.2-1,4.6-1.6,7-1.5
	c2.4,0,4.9,0.5,7.1,1.6c2.1,1,3.9,2.5,5.5,4.2c1.5,1.7,2.7,3.7,3.5,5.9c0.9,2.1,1.3,4.4,1.3,6.7c0,4.7-1.8,9.3-5,12.8
	c-1.6,1.7-3.5,3-5.6,4c-2.2,1-4.5,1.5-6.9,1.5 M880.7,371.2c0.1,1.7,0.4,3.4,1,5c0.5,1.6,1.3,3,2.3,4.3c1,1.2,2.3,2.2,3.7,2.9
	c1.5,0.7,3.1,1.1,4.8,1.1c1.7,0,3.4-0.4,4.9-1.2c1.4-0.7,2.6-1.8,3.5-3c1-1.3,1.7-2.7,2.2-4.3c0.5-1.6,0.8-3.2,0.8-4.8
	c0-1.7-0.3-3.3-0.8-4.9c-0.5-1.6-1.3-3-2.3-4.2c-1-1.2-2.2-2.3-3.7-3c-4.6-2.3-10.1-1-13.2,3.1c-1,1.3-1.8,2.7-2.4,4.2
	C881,367.9,880.7,369.6,880.7,371.2"/>
<polygon class="st0" points="923.4,363.8 923.4,389.4 917.7,389.4 917.7,353.1 922.3,353.1 942.9,379.3 942.9,353.2 948.6,353.2 
	948.6,389.4 943.6,389.4 "/>
<path class="st0" d="M980.3,361.7c-0.4-0.5-0.9-0.8-1.5-1.2c-0.7-0.5-1.5-0.9-2.3-1.2c-0.9-0.4-1.9-0.7-2.9-0.9
	c-1-0.2-2.1-0.3-3.2-0.4c-1.9-0.1-3.7,0.3-5.3,1.3c-1.1,0.9-1.8,2.2-1.8,3.7c0,1,0.3,2,1,2.8c0.8,0.8,1.9,1.3,3,1.6
	c1.3,0.5,3,0.9,5,1.4c2.2,0.5,4.3,1.2,6.4,2.1c1.6,0.7,3.1,1.8,4.1,3.2c1,1.6,1.5,3.4,1.4,5.3c0,1.6-0.3,3.2-1,4.7
	c-0.6,1.3-1.6,2.5-2.8,3.3c-1.3,0.8-2.7,1.5-4.2,1.8c-1.7,0.4-3.4,0.5-5.2,0.5c-1.8,0-3.6-0.2-5.4-0.6c-1.8-0.4-3.5-0.9-5.1-1.6
	c-1.6-0.7-3.1-1.6-4.4-2.7l2.6-4.9c0.6,0.5,1.2,1,1.9,1.5c2,1.2,4.2,2.1,6.5,2.7c1.3,0.3,2.7,0.5,4,0.5c1.8,0.1,3.6-0.3,5.2-1.2
	c1.2-0.8,1.9-2.1,1.8-3.5c0.1-1.1-0.3-2.2-1.1-2.9c-1-0.9-2.2-1.5-3.4-1.9c-1.5-0.5-3.3-1-5.4-1.5c-2.1-0.5-4.1-1.2-6-2.1
	c-1.5-0.7-2.7-1.7-3.6-3c-0.8-1.4-1.2-3-1.2-4.6c-0.1-2.1,0.5-4.2,1.7-6c1.2-1.7,2.8-3,4.7-3.7c2.1-0.9,4.4-1.3,6.7-1.3
	c4.4,0.1,8.7,1.5,12.3,4.2L980.3,361.7z"/>
</svg>
